<svg xmlns="http://www.w3.org/2000/svg" width="1258.629" height="1920" viewBox="0 0 1258.629 1920">
  <path id="mic-svgrepo-com" d="M425.818,709.983V943.41c0,293.551,238.946,532.5,532.5,532.5s532.5-238.946,532.5-532.5V709.983h96.818V943.41c0,330.707-256.438,602.668-580.9,627.471l-.006,252.3h242.044V1920H667.862v-96.818H909.905l0-252.3C585.438,1546.08,329,1274.12,329,943.41V709.983ZM958.315,0c240.2,0,435.679,195.475,435.679,435.68V919.767c0,240.2-195.475,435.68-435.68,435.68s-435.679-195.475-435.679-435.68V435.68C522.635,195.475,718.11,0,958.315,0Z" transform="translate(-329)" fill="#cd128a" fill-rule="evenodd"/>
</svg>
